Release Brought to you by CrEwSaDe
                             

******************************************************************************************************              

                           **Horrid.Henry.2011.DVDRip.XviD.AC3.CrEwSaDe**

******************************************************************************************************

Encoder ..........: DarthMidal                                                    
Video Codec.......: XviD
Video Bitrate.....: 958 Kbps                              
Audio Codec.......: AC-3                              
Audio Bitrate.....: 128 kbps                           
Resolution........: 720x384
Runtime...........: 1h 29mn                              
Release Date......: 26/11/11
Theatre Date......: 29 July 2011 (UK)
Language..........: English
Subtitles.........: no
IMDB Rating.......: 4.2
IMDb URL..........: http://www.imdb.com/title/tt1684555/

General
Complete name                    : E:\Horrid.Henry.2011.DVDRip.XviD.AC3.CrEwSaDe\Horrid.Henry.2011.DVDRip.XviD.AC3.CrEwSaDe.avi
Format                           : AVI
Format/Info                      : Audio Video Interleave
File size                        : 697 MiB
Duration                         : 1h 29mn
Overall bit rate                 : 1 094 Kbps

Video
ID                               : 0
Format                           : MPEG-4 Visual
Format profile                   : Advanced Simple@L5
Format settings, BVOP            : 2
Format settings, QPel            : No
Format settings, GMC             : No warppoints
Format settings, Matrix          : Default (H.263)
Codec ID                         : XVID
Codec ID/Hint                    : XviD
Duration                         : 1h 29mn
Bit rate                         : 958 Kbps
Width                            : 720 pixels
Height                           : 384 pixels
Display aspect ratio             : 1.875
Frame rate                       : 25.000 fps
Color space                      : YUV
Chroma subsampling               : 4:2:0
Bit depth                        : 8 bits
Scan type                        : Progressive
Compression mode                 : Lossy
Bits/(Pixel*Frame)               : 0.139
Stream size                      : 610 MiB (88%)
Writing library                  : XviD 1.2.1 (UTC 2008-12-04)

Audio
ID                               : 1
Format                           : AC-3
Format/Info                      : Audio Coding 3
Mode extension                   : CM (complete main)
Codec ID                         : 2000
Duration                         : 1h 29mn
Bit rate mode                    : Constant
Bit rate                         : 128 Kbps
Channel(s)                       : 6 channels
Channel positions                : Front: L C R, Side: L R, LFE
Sampling rate                    : 48.0 KHz
Bit depth                        : 16 bits
Compression mode                 : Lossy
Stream size                      : 81.5 MiB (12%)
Alignment                        : Aligned on interleaves
Interleave, duration             : 64 ms (1.60 video frames)
Interleave, preload duration     : 192 ms
Title                            : VTS_10_1 T80 3_2ch 448Kbps DELAY 0ms


SOURCES: HORRID HENRY 2011 PAL DVDR Legend-Rg   Thank you 

VIDEO: HORRID HENRY 2011 PAL DVDR Legend-Rg  Thank you 
AUDIO: HORRID HENRY 2011 PAL DVDR Legend-Rg  Thank you 

Plot: Horrid Henry finds himself doing things he never ever thought he'd do, and then some.


Screens:
[img]http://i1179.photobucket.com/albums/x394/crewsade/Darthmidal%20screens/vlcsnap-2011-11-26-10h13m12s93.png[/img]
[img]http://i1179.photobucket.com/albums/x394/crewsade/Darthmidal%20screens/vlcsnap-2011-11-26-10h13m41s123.png[/img]
[img]http://i1179.photobucket.com/albums/x394/crewsade/Darthmidal%20screens/vlcsnap-2011-11-26-10h14m04s96.png[/img]
[img]http://i1179.photobucket.com/albums/x394/crewsade/Darthmidal%20screens/vlcsnap-2011-11-26-10h14m22s21.png[/img]